<?xml version="1.0" encoding="UTF-8"?>
<svg xmlns="http://www.w3.org/2000/svg" xmlns:xlink="http://www.w3.org/1999/xlink" width="612pt" height="792pt" viewBox="0 0 612 792" version="1.1">
<g id="surface1">
<path style=" stroke:none;fill-rule:evenodd;fill:rgb(92.96875%,10.984802%,14.109802%);fill-opacity:1;" d="M 285.878906 344.035156 C 306.753906 332.972656 329.28125 330.597656 347.636719 334.953125 C 389.53125 344.894531 392.84375 376.347656 370.511719 408.902344 C 360.3125 423.765625 345.1875 438.070313 326.972656 447.085938 C 297.117188 461.855469 268.433594 462.699219 249.648438 451.304688 C 230.785156 439.863281 226.230469 420.703125 232.960938 400.324219 C 240.003906 378.988281 259.265625 357.203125 285.878906 344.035156 "/>
<path style=" stroke:none;fill-rule:nonzero;fill:rgb(100%,100%,100%);fill-opacity:1;" d="M 351.746094 368.054688 L 351.730469 368.101563 C 351.613281 369.242188 351.640625 370.433594 351.804688 371.632813 C 351.984375 372.949219 352.335938 374.304688 352.84375 375.660156 C 353.550781 377.558594 354.503906 379.28125 355.65625 380.707031 C 356.699219 381.992188 357.902344 383.050781 359.238281 383.785156 C 360.949219 384.507813 362.511719 384.84375 363.816406 384.816406 C 364.886719 384.792969 365.734375 384.527344 366.265625 384.03125 C 366.664063 383.660156 366.921875 383.074219 367.035156 382.265625 C 367.191406 381.167969 367.078125 379.734375 366.707031 377.960938 C 366.609375 377.492188 366.496094 377.039063 366.371094 376.601563 C 366.246094 376.179688 366.097656 375.730469 365.925781 375.265625 C 365.0625 372.957031 363.832031 370.859375 362.308594 369.253906 C 360.988281 367.867188 359.453125 366.847656 357.746094 366.394531 C 355.953125 365.917969 354.433594 365.871094 353.34375 366.277344 C 352.621094 366.546875 352.078125 367.085938 351.785156 367.90625 Z M 350.941406 339.882813 C 359.824219 336.566406 368.671875 337.324219 376.175781 341.019531 C 383.96875 344.863281 390.273438 351.882813 393.601563 360.789063 C 395.464844 365.773438 396.226563 370.9375 395.941406 375.933594 C 395.660156 380.921875 394.320313 385.746094 391.980469 390.046875 C 391.886719 390.246094 391.738281 390.542969 391.527344 390.941406 C 391.332031 391.308594 391.15625 391.613281 391.011719 391.855469 C 387.386719 397.796875 383.6875 402.03125 379.96875 405.132813 C 376.199219 408.28125 372.453125 410.238281 368.769531 411.613281 C 359.6875 415.007813 350.703125 414.265625 343.105469 410.585938 C 335.136719 406.730469 328.730469 399.640625 325.398438 390.71875 C 323.574219 385.835938 322.746094 380.964844 322.898438 376.222656 C 323.050781 371.433594 324.203125 366.816406 326.339844 362.488281 C 327.933594 359.269531 330.488281 355.589844 333.777344 352.054688 C 336.679688 348.945313 340.171875 345.910156 344.101563 343.371094 L 344.144531 343.34375 C 345.164063 342.664063 346.246094 342.03125 347.382813 341.453125 C 348.535156 340.863281 349.722656 340.339844 350.941406 339.882813 "/>
<path style=" stroke:none;fill-rule:nonzero;fill:rgb(100%,100%,100%);fill-opacity:1;" d="M 309.320313 356.300781 L 324.476563 350.636719 C 325.847656 350.125 327.375 350.820313 327.886719 352.191406 C 327.914063 352.265625 327.9375 352.339844 327.960938 352.414063 L 349.585938 410.074219 C 349.761719 410.386719 349.878906 410.742188 349.910156 411.125 C 349.984375 411.9375 349.683594 412.695313 349.152344 413.230469 L 342.074219 420.324219 C 341.777344 420.621094 341.429688 420.835938 341.054688 420.960938 L 328.550781 425.570313 C 327.730469 425.875 326.851563 425.742188 326.175781 425.292969 L 326.171875 425.300781 L 312.011719 415.90625 L 314.664063 423.035156 C 314.910156 423.441406 315.046875 423.921875 315.039063 424.429688 C 315.027344 425.152344 314.730469 425.800781 314.253906 426.269531 L 307.160156 433.328125 C 306.882813 433.601563 306.5625 433.800781 306.222656 433.929688 L 306.222656 433.933594 L 290.929688 439.648438 C 289.558594 440.160156 288.03125 439.464844 287.519531 438.09375 L 265.75 379.835938 C 265.347656 378.757813 265.691406 377.582031 266.527344 376.882813 L 273.414063 369.964844 C 273.710938 369.667969 274.0625 369.453125 274.433594 369.328125 L 287.765625 364.425781 C 288.582031 364.125 289.453125 364.253906 290.128906 364.695313 L 290.132813 364.691406 L 303.105469 373.164063 L 300.726563 366.785156 C 300.355469 365.789063 300.625 364.707031 301.332031 363.996094 L 308.378906 356.917969 C 308.65625 356.640625 308.980469 356.4375 309.324219 356.308594 L 309.320313 356.300781 "/>
<path style=" stroke:none;fill-rule:nonzero;fill:rgb(100%,100%,100%);fill-opacity:1;" d="M 257.515625 451.8125 C 251.554688 452.453125 246.328125 451.273438 241.847656 448.601563 C 235.792969 444.988281 231.234375 438.707031 228.191406 430.5625 L 216.167969 398.382813 C 215.765625 397.304688 216.109375 396.128906 216.945313 395.425781 L 223.832031 388.511719 C 224.109375 388.234375 224.429688 388.03125 224.773438 387.902344 L 224.773438 387.894531 L 240.050781 382.183594 C 241.421875 381.671875 242.949219 382.367188 243.460938 383.738281 L 255.742188 416.609375 C 256.464844 418.535156 257.480469 420.289063 258.84375 421.46875 C 259.890625 422.378906 261.179688 422.964844 262.75 423.027344 C 263.074219 423.042969 263.433594 423.046875 263.710938 423.003906 C 263.714844 422.40625 263.65625 421.800781 263.554688 421.195313 C 263.398438 420.292969 263.128906 419.359375 262.78125 418.425781 L 250.496094 385.558594 C 250.09375 384.476563 250.441406 383.300781 251.277344 382.597656 L 257.9375 375.921875 C 258.226563 375.546875 258.625 375.246094 259.101563 375.066406 L 274.378906 369.355469 C 275.75 368.84375 277.277344 369.539063 277.789063 370.910156 L 289.960938 403.484375 C 291.839844 408.515625 292.769531 413.300781 292.710938 417.78125 C 292.652344 422.320313 291.582031 426.511719 289.464844 430.289063 C 287.808594 433.242188 284.570313 436.375 281.359375 439.484375 C 280.632813 440.1875 279.90625 440.886719 279.300781 441.488281 L 279.25 441.539063 C 278.046875 442.816406 276.691406 444.003906 275.175781 445.085938 C 269.972656 448.808594 263.863281 451.132813 257.515625 451.8125 "/>
<path style=" stroke:none;fill-rule:evenodd;fill:rgb(0%,0%,0%);fill-opacity:1;" d="M 310.246094 358.785156 L 325.40625 353.121094 L 347.25 411.371094 L 347.28125 411.367188 L 340.207031 418.460938 L 327.636719 423.09375 L 306.699219 409.203125 L 312.34375 424.371094 L 312.292969 424.390625 L 312.394531 424.390625 L 305.296875 431.449219 L 290 437.164063 L 268.234375 378.910156 L 275.28125 371.828125 L 288.679688 366.902344 L 308.386719 379.769531 L 303.199219 365.863281 L 310.246094 358.785156 "/>
<path style=" stroke:none;fill-rule:evenodd;fill:rgb(0%,0%,0%);fill-opacity:1;" d="M 351.871094 342.367188 C 368.570313 336.128906 385.074219 345.546875 391.117188 361.71875 C 394.601563 371.046875 393.957031 381.003906 389.570313 388.941406 C 389.34375 389.441406 389.070313 389.953125 388.75 390.480469 C 381.816406 401.84375 374.734375 406.554688 367.84375 409.128906 C 350.644531 415.558594 333.90625 405.914063 327.882813 389.789063 C 324.457031 380.625 324.78125 371.617188 328.714844 363.660156 C 331.503906 358.003906 337.59375 350.734375 345.53125 345.601563 L 345.535156 345.597656 C 347.445313 344.320313 349.558594 343.230469 351.871094 342.367188 Z M 349.128906 367.570313 C 349.152344 367.480469 349.179688 367.390625 349.207031 367.300781 C 350.316406 363.6875 353.890625 362.636719 358.429688 363.84375 C 363.027344 365.0625 366.527344 369.308594 368.40625 374.335938 C 368.785156 375.351563 369.085938 376.382813 369.300781 377.414063 C 370.160156 381.539063 369.78125 384.367188 368.0625 385.96875 C 366.050781 387.839844 362.351563 387.996094 358.121094 386.183594 C 354.632813 384.328125 351.929688 380.789063 350.359375 376.589844 C 349.238281 373.59375 348.78125 370.460938 349.128906 367.570313 "/>
<path style=" stroke:none;fill-rule:evenodd;fill:rgb(0%,0%,0%);fill-opacity:1;" d="M 321.191406 388.128906 L 310.246094 358.785156 L 325.40625 353.121094 L 347.253906 411.378906 L 334.683594 416.015625 L 300.890625 393.597656 L 312.34375 424.371094 L 297.050781 430.085938 L 275.28125 371.828125 L 288.679688 366.902344 L 321.191406 388.128906 "/>
<path style=" stroke:none;fill-rule:evenodd;fill:rgb(100%,100%,100%);fill-opacity:1;" d="M 325.222656 393.171875 L 312.839844 359.96875 L 324.226563 355.714844 L 344.65625 410.191406 L 334.945313 413.769531 L 296.839844 388.488281 L 309.753906 423.1875 L 298.230469 427.492188 L 277.878906 373.023438 L 288.425781 369.144531 L 325.222656 393.171875 "/>
<path style=" stroke:none;fill-rule:evenodd;fill:rgb(97.264099%,85.546875%,15.281677%);fill-opacity:1;" d="M 307.953125 422.363281 L 299.054688 425.691406 L 279.683594 373.851563 L 288.25 370.703125 L 328.019531 396.671875 L 314.640625 360.789063 L 323.40625 357.515625 L 342.851563 409.363281 L 335.128906 412.210938 L 294.023438 384.941406 L 307.953125 422.363281 "/>
<path style=" stroke:none;fill-rule:evenodd;fill:rgb(0%,0%,0%);fill-opacity:1;" d="M 351.871094 342.367188 C 368.570313 336.128906 385.074219 345.546875 391.117188 361.71875 C 397.140625 377.839844 390.828125 395.839844 374.175781 402.0625 C 357.527344 408.28125 340.953125 398.835938 334.929688 382.710938 C 328.886719 366.542969 335.171875 348.605469 351.871094 342.367188 Z M 357.386719 357.128906 C 348.96875 360.273438 347.476563 368.871094 350.359375 376.589844 C 353.25 384.324219 359.992188 389.828125 368.425781 386.675781 C 376.867188 383.523438 378.3125 374.953125 375.425781 367.222656 C 372.542969 359.511719 365.804688 353.980469 357.386719 357.128906 "/>
<path style=" stroke:none;fill-rule:evenodd;fill:rgb(100%,100%,100%);fill-opacity:1;" d="M 352.574219 344.253906 C 368.21875 338.410156 383.570313 347.285156 389.226563 362.421875 C 394.867188 377.515625 389.0625 394.347656 373.472656 400.171875 C 357.878906 405.996094 342.457031 397.097656 336.820313 382.007813 C 331.164063 366.867188 336.933594 350.101563 352.574219 344.253906 Z M 356.679688 355.238281 C 347.183594 358.785156 345.191406 368.523438 348.472656 377.296875 C 351.753906 386.082031 359.617188 392.121094 369.132813 388.566406 C 378.652344 385.007813 380.59375 375.296875 377.3125 366.519531 C 374.039063 357.753906 366.179688 351.6875 356.679688 355.238281 "/>
<path style=" stroke:none;fill-rule:evenodd;fill:rgb(97.264099%,85.546875%,15.281677%);fill-opacity:1;" d="M 356.191406 353.925781 C 366.085938 350.230469 374.914063 356.101563 378.625 366.027344 C 382.335938 375.953125 379.554688 386.164063 369.621094 389.878906 C 359.695313 393.585938 350.867188 387.714844 347.160156 377.785156 C 343.449219 367.859375 346.292969 357.625 356.191406 353.925781 Z M 353.066406 345.566406 C 367.707031 340.097656 382.417969 348.195313 387.917969 362.910156 C 393.414063 377.628906 387.53125 393.425781 372.980469 398.859375 C 358.429688 404.296875 343.628906 396.234375 338.128906 381.515625 C 332.632813 366.800781 338.425781 351.035156 353.066406 345.566406 "/>
<path style=" stroke:none;fill-rule:evenodd;fill:rgb(0%,0%,0%);fill-opacity:1;" d="M 255.867188 449.296875 C 243.824219 449.976563 235.390625 442.253906 230.675781 429.636719 L 218.652344 397.457031 L 225.699219 390.378906 L 240.980469 384.667969 L 253.261719 417.535156 C 254.847656 421.777344 257.800781 425.46875 262.644531 425.667969 C 264.019531 425.722656 265.9375 425.613281 266.332031 423.734375 C 266.46875 421.679688 266.023438 419.53125 265.261719 417.5 L 252.980469 384.628906 L 260.03125 377.558594 L 260.027344 377.550781 L 260.050781 377.539063 L 260.058594 377.53125 L 260.070313 377.535156 L 275.308594 371.839844 L 287.480469 404.414063 C 290.996094 413.828125 290.976563 422.175781 287.15625 428.996094 C 285.355469 432.210938 281.101563 435.992188 277.449219 439.605469 L 277.433594 439.617188 C 272.03125 445.425781 263.667969 448.855469 255.867188 449.296875 "/>
<path style=" stroke:none;fill-rule:evenodd;fill:rgb(0%,0%,0%);fill-opacity:1;" d="M 275.960938 438.636719 L 276.023438 438.8125 L 272.824219 440.007813 C 272.730469 440.042969 272.636719 440.074219 272.59375 440.089844 C 272.488281 440.128906 272.382813 440.171875 272.277344 440.210938 L 269.078125 441.40625 L 269.007813 441.222656 C 253.679688 445.253906 243.199219 437.207031 237.726563 422.558594 L 225.699219 390.378906 L 240.980469 384.667969 L 253.261719 417.535156 C 254.847656 421.777344 257.800781 425.46875 262.644531 425.667969 C 264.089844 425.726563 265.535156 425.457031 266.886719 424.953125 C 268.265625 424.4375 269.558594 423.675781 270.625 422.660156 C 274.113281 419.332031 273.882813 414.621094 272.3125 410.417969 L 260.027344 377.550781 L 275.308594 371.839844 L 287.480469 404.414063 C 293.015625 419.226563 290.277344 431.679688 275.960938 438.636719 "/>
<path style=" stroke:none;fill-rule:evenodd;fill:rgb(100%,100%,100%);fill-opacity:1;" d="M 273.414063 437.585938 L 273.429688 437.628906 L 272.117188 438.117188 C 272.023438 438.152344 271.929688 438.1875 271.867188 438.210938 C 271.769531 438.246094 271.671875 438.285156 271.570313 438.320313 L 270.261719 438.8125 L 270.242188 438.765625 C 255.089844 443.582031 244.988281 436.234375 239.613281 421.851563 L 228.292969 391.558594 L 239.796875 387.261719 L 251.371094 418.242188 C 253.253906 423.28125 256.875 427.449219 262.558594 427.683594 C 264.273438 427.753906 265.988281 427.441406 267.59375 426.84375 C 269.226563 426.230469 270.753906 425.324219 272.015625 424.117188 C 276.113281 420.210938 276.070313 414.71875 274.199219 409.714844 L 262.621094 378.730469 L 274.125 374.433594 L 285.589844 405.117188 C 291.015625 419.640625 288.132813 431.285156 273.414063 437.585938 "/>
<path style=" stroke:none;fill-rule:evenodd;fill:rgb(97.264099%,85.546875%,15.281677%);fill-opacity:1;" d="M 230.097656 392.382813 L 238.976563 389.0625 L 250.0625 418.734375 C 253.726563 428.539063 261.519531 430.542969 268.082031 428.152344 C 274.605469 425.652344 279.265625 419.054688 275.511719 409.222656 L 264.425781 379.554688 L 273.304688 376.234375 L 284.277344 405.609375 C 288.660156 417.332031 288.71875 430.148438 271.625 436.800781 L 271.628906 436.808594 C 271.539063 436.839844 271.449219 436.871094 271.363281 436.902344 C 271.269531 436.9375 271.175781 436.976563 271.082031 437.011719 L 271.078125 437.003906 C 254.285156 443.003906 245.414063 433.371094 240.925781 421.363281 L 230.097656 392.382813 "/>
<path style=" stroke:none;fill-rule:evenodd;fill:rgb(34.521484%,34.521484%,35.301208%);fill-opacity:1;" d="M 305.480469 366.34375 L 310.996094 360.789063 L 314.089844 369.089844 L 308.578125 374.640625 Z M 309.621094 377.429688 L 315.136719 371.875 L 316.308594 375.019531 L 310.796875 380.570313 L 309.621094 377.429688 "/>
<path style=" stroke:none;fill-rule:evenodd;fill:rgb(34.521484%,34.521484%,35.301208%);fill-opacity:1;" d="M 255.285156 385.101563 L 260.800781 379.546875 L 263.898438 387.847656 L 258.382813 393.398438 Z M 259.425781 396.1875 L 264.941406 390.632813 L 266.113281 393.777344 L 260.601563 399.324219 L 259.425781 396.1875 "/>
<path style=" stroke:none;fill-rule:evenodd;fill:rgb(34.521484%,34.521484%,35.301208%);fill-opacity:1;" d="M 227.910156 416.613281 L 233.429688 411.058594 L 236.523438 419.359375 L 231.011719 424.910156 Z M 232.050781 427.699219 L 237.570313 422.144531 L 237.574219 422.152344 L 237.726563 422.558594 C 238.074219 423.492188 238.445313 424.402344 238.835938 425.285156 L 233.253906 430.90625 L 232.050781 427.699219 "/>
<path style=" stroke:none;fill-rule:evenodd;fill:rgb(34.521484%,34.521484%,35.301208%);fill-opacity:1;" d="M 364.222656 364.621094 L 369.777344 359.03125 C 371.808594 360.667969 373.480469 362.914063 374.695313 365.496094 L 369.195313 371.03125 C 367.964844 368.605469 366.300781 366.34375 364.222656 364.621094 Z M 370.359375 373.699219 L 375.777344 368.242188 C 376.152344 369.40625 376.425781 370.578125 376.59375 371.746094 L 371.320313 377.054688 L 371.308594 376.992188 C 371.074219 375.875 370.757813 374.773438 370.359375 373.699219 "/>
</g>
</svg>
